<svg width="25" height="25" viewBox="0 0 25 25" fill="none" xmlns="http://www.w3.org/2000/svg">
<path d="M19.8822 21.4685H8.8822V7.46851H19.8822M19.8822 5.46851H8.8822C8.35177 5.46851 7.84306 5.67922 7.46799 6.05429C7.09292 6.42936 6.8822 6.93807 6.8822 7.46851V21.4685C6.8822 21.9989 7.09292 22.5076 7.46799 22.8827C7.84306 23.2578 8.35177 23.4685 8.8822 23.4685H19.8822C20.4126 23.4685 20.9213 23.2578 21.2964 22.8827C21.6715 22.5076 21.8822 21.9989 21.8822 21.4685V7.46851C21.8822 6.93807 21.6715 6.42936 21.2964 6.05429C20.9213 5.67922 20.4126 5.46851 19.8822 5.46851M16.8822 1.46851H4.8822C4.35177 1.46851 3.84306 1.67922 3.46799 2.05429C3.09292 2.42937 2.8822 2.93807 2.8822 3.46851V17.4685H4.8822V3.46851H16.8822V1.46851Z" fill="#303030"/>
</svg>
